<mxfile host="app.diagrams.net" modified="2023-07-24T05:19:01.587Z" agent="Mozilla/5.0 (Windows NT 10.0; Win64; x64) AppleWebKit/537.36 (KHTML, like Gecko) Chrome/115.0.0.0 Safari/537.36" etag="fCXcnwhUck1mzrHN1Thg" version="21.6.5" type="device">
  <diagram id="C5RBs43oDa-KdzZeNtuy" name="Page-1">
    <mxGraphModel dx="1574" dy="-401" grid="1" gridSize="10" guides="1" tooltips="1" connect="1" arrows="1" fold="1" page="1" pageScale="1" pageWidth="827" pageHeight="1169" math="0" shadow="0">
      <root>
        <mxCell id="WIyWlLk6GJQsqaUBKTNV-0" />
        <mxCell id="WIyWlLk6GJQsqaUBKTNV-1" parent="WIyWlLk6GJQsqaUBKTNV-0" />
        <mxCell id="_n6biWY-DovMYCIdTSip-2" style="edgeStyle=orthogonalEdgeStyle;rounded=0;orthogonalLoop=1;jettySize=auto;html=1;entryX=0.5;entryY=0;entryDx=0;entryDy=0;" edge="1" parent="WIyWlLk6GJQsqaUBKTNV-1" source="nLO9X-y7PH8CgJkoStWJ-20" target="iYNlj8gmq-6oQYh_tgKt-22">
          <mxGeometry relative="1" as="geometry" />
        </mxCell>
        <mxCell id="_n6biWY-DovMYCIdTSip-3" style="edgeStyle=orthogonalEdgeStyle;rounded=0;orthogonalLoop=1;jettySize=auto;html=1;" edge="1" parent="WIyWlLk6GJQsqaUBKTNV-1" source="nLO9X-y7PH8CgJkoStWJ-20" target="nLO9X-y7PH8CgJkoStWJ-0">
          <mxGeometry relative="1" as="geometry" />
        </mxCell>
        <mxCell id="_n6biWY-DovMYCIdTSip-4" style="edgeStyle=orthogonalEdgeStyle;rounded=0;orthogonalLoop=1;jettySize=auto;html=1;entryX=0.5;entryY=0;entryDx=0;entryDy=0;" edge="1" parent="WIyWlLk6GJQsqaUBKTNV-1" source="nLO9X-y7PH8CgJkoStWJ-20" target="nLO9X-y7PH8CgJkoStWJ-13">
          <mxGeometry relative="1" as="geometry">
            <mxPoint x="520" y="1440" as="targetPoint" />
          </mxGeometry>
        </mxCell>
        <mxCell id="nLO9X-y7PH8CgJkoStWJ-20" value="WaterCooler: Area2D" style="swimlane;fontStyle=2;align=center;verticalAlign=top;childLayout=stackLayout;horizontal=1;startSize=26;horizontalStack=0;resizeParent=1;resizeLast=0;collapsible=1;marginBottom=0;rounded=0;shadow=0;strokeWidth=1;" parent="WIyWlLk6GJQsqaUBKTNV-1" vertex="1">
          <mxGeometry x="150" y="1200" width="320" height="100" as="geometry">
            <mxRectangle x="230" y="130" width="160" height="26" as="alternateBounds" />
          </mxGeometry>
        </mxCell>
        <mxCell id="nLO9X-y7PH8CgJkoStWJ-21" value="+ collected: signal" style="text;align=left;verticalAlign=top;spacingLeft=4;spacingRight=4;overflow=hidden;rotatable=0;points=[[0,0.5],[1,0.5]];portConstraint=eastwest;" parent="nLO9X-y7PH8CgJkoStWJ-20" vertex="1">
          <mxGeometry y="26" width="320" height="24" as="geometry" />
        </mxCell>
        <mxCell id="nLO9X-y7PH8CgJkoStWJ-22" value="" style="line;html=1;strokeWidth=1;align=left;verticalAlign=middle;spacingTop=-1;spacingLeft=3;spacingRight=3;rotatable=0;labelPosition=right;points=[];portConstraint=eastwest;" parent="nLO9X-y7PH8CgJkoStWJ-20" vertex="1">
          <mxGeometry y="50" width="320" height="8" as="geometry" />
        </mxCell>
        <mxCell id="nLO9X-y7PH8CgJkoStWJ-23" value="+ _ready(): void&#xa;+ on_body_entered(body: Node2D): void" style="text;align=left;verticalAlign=top;spacingLeft=4;spacingRight=4;overflow=hidden;rotatable=0;points=[[0,0.5],[1,0.5]];portConstraint=eastwest;" parent="nLO9X-y7PH8CgJkoStWJ-20" vertex="1">
          <mxGeometry y="58" width="320" height="42" as="geometry" />
        </mxCell>
        <mxCell id="iYNlj8gmq-6oQYh_tgKt-22" value="&lt;font style=&quot;font-size: 13px;&quot;&gt;&lt;b style=&quot;border-color: var(--border-color); font-style: normal;&quot;&gt;Sprite2D&lt;/b&gt;&lt;b style=&quot;font-style: normal;&quot;&gt;&lt;br&gt;&lt;/b&gt;&lt;/font&gt;" style="whiteSpace=wrap;html=1;verticalAlign=middle;fontStyle=2;startSize=26;rounded=0;shadow=0;strokeWidth=1;" parent="WIyWlLk6GJQsqaUBKTNV-1" vertex="1">
          <mxGeometry x="20" y="1440" width="200" height="60" as="geometry" />
        </mxCell>
        <mxCell id="nLO9X-y7PH8CgJkoStWJ-0" value="&lt;font style=&quot;font-size: 13px;&quot;&gt;&lt;b style=&quot;font-style: normal;&quot;&gt;CollisionShape2D&lt;br&gt;&lt;/b&gt;&lt;/font&gt;" style="whiteSpace=wrap;html=1;verticalAlign=middle;fontStyle=2;startSize=26;rounded=0;shadow=0;strokeWidth=1;" parent="WIyWlLk6GJQsqaUBKTNV-1" vertex="1">
          <mxGeometry x="210" y="1600" width="200" height="60" as="geometry" />
        </mxCell>
        <mxCell id="nLO9X-y7PH8CgJkoStWJ-19" style="edgeStyle=orthogonalEdgeStyle;rounded=0;orthogonalLoop=1;jettySize=auto;html=1;" parent="WIyWlLk6GJQsqaUBKTNV-1" source="nLO9X-y7PH8CgJkoStWJ-13" target="nLO9X-y7PH8CgJkoStWJ-18" edge="1">
          <mxGeometry relative="1" as="geometry">
            <Array as="points">
              <mxPoint x="500" y="1630" />
              <mxPoint x="500" y="1630" />
            </Array>
          </mxGeometry>
        </mxCell>
        <mxCell id="_n6biWY-DovMYCIdTSip-7" style="edgeStyle=orthogonalEdgeStyle;rounded=0;orthogonalLoop=1;jettySize=auto;html=1;" edge="1" parent="WIyWlLk6GJQsqaUBKTNV-1" source="nLO9X-y7PH8CgJkoStWJ-13" target="_n6biWY-DovMYCIdTSip-6">
          <mxGeometry relative="1" as="geometry">
            <Array as="points">
              <mxPoint x="670" y="1660" />
              <mxPoint x="670" y="1660" />
            </Array>
          </mxGeometry>
        </mxCell>
        <mxCell id="nLO9X-y7PH8CgJkoStWJ-13" value="WaterCoolerPointer: Node2D" style="swimlane;fontStyle=2;align=center;verticalAlign=top;childLayout=stackLayout;horizontal=1;startSize=26;horizontalStack=0;resizeParent=1;resizeLast=0;collapsible=1;marginBottom=0;rounded=0;shadow=0;strokeWidth=1;" parent="WIyWlLk6GJQsqaUBKTNV-1" vertex="1">
          <mxGeometry x="450" y="1440" width="290" height="160" as="geometry">
            <mxRectangle x="-1630" y="690" width="160" height="26" as="alternateBounds" />
          </mxGeometry>
        </mxCell>
        <mxCell id="nLO9X-y7PH8CgJkoStWJ-14" value="+ sprite_2d: Sprite2D" style="text;align=left;verticalAlign=top;spacingLeft=4;spacingRight=4;overflow=hidden;rotatable=0;points=[[0,0.5],[1,0.5]];portConstraint=eastwest;" parent="nLO9X-y7PH8CgJkoStWJ-13" vertex="1">
          <mxGeometry y="26" width="290" height="34" as="geometry" />
        </mxCell>
        <mxCell id="nLO9X-y7PH8CgJkoStWJ-15" value="" style="line;html=1;strokeWidth=1;align=left;verticalAlign=middle;spacingTop=-1;spacingLeft=3;spacingRight=3;rotatable=0;labelPosition=right;points=[];portConstraint=eastwest;" parent="nLO9X-y7PH8CgJkoStWJ-13" vertex="1">
          <mxGeometry y="60" width="290" height="8" as="geometry" />
        </mxCell>
        <mxCell id="nLO9X-y7PH8CgJkoStWJ-16" value="+ _ready(): void&#xa;+ _process(delta: float): void&#xa;+ play_entry_scaling(): void&#xa;+ set_pointer_position(bounds: Rect2): void&#xa;+ set_pointer_rotation(): void" style="text;align=left;verticalAlign=top;spacingLeft=4;spacingRight=4;overflow=hidden;rotatable=0;points=[[0,0.5],[1,0.5]];portConstraint=eastwest;" parent="nLO9X-y7PH8CgJkoStWJ-13" vertex="1">
          <mxGeometry y="68" width="290" height="92" as="geometry" />
        </mxCell>
        <mxCell id="nLO9X-y7PH8CgJkoStWJ-18" value="&lt;font style=&quot;font-size: 13px;&quot;&gt;&lt;b style=&quot;font-style: normal;&quot;&gt;AnimationPlayer&lt;br&gt;&lt;/b&gt;&lt;/font&gt;" style="whiteSpace=wrap;html=1;verticalAlign=middle;fontStyle=2;startSize=26;rounded=0;shadow=0;strokeWidth=1;" parent="WIyWlLk6GJQsqaUBKTNV-1" vertex="1">
          <mxGeometry x="430" y="1723" width="140" height="60" as="geometry" />
        </mxCell>
        <mxCell id="_n6biWY-DovMYCIdTSip-6" value="&lt;font style=&quot;font-size: 13px;&quot;&gt;&lt;b style=&quot;font-style: normal;&quot;&gt;Sprite2D&lt;br&gt;&lt;/b&gt;&lt;/font&gt;" style="whiteSpace=wrap;html=1;verticalAlign=middle;fontStyle=2;startSize=26;rounded=0;shadow=0;strokeWidth=1;" vertex="1" parent="WIyWlLk6GJQsqaUBKTNV-1">
          <mxGeometry x="600" y="1724" width="140" height="60" as="geometry" />
        </mxCell>
      </root>
    </mxGraphModel>
  </diagram>
</mxfile>
